<svg width="78" xmlns="http://www.w3.org/2000/svg" height="79" fill="none"><g class="fills"><rect rx="0" ry="0" width="78" height="79" transform="matrix(1.000000, 0.000000, 0.000000, 1.000000, 0.000000, 0.000000)" class="frame-background"/></g><g xml:space="preserve" style="fill: rgb(0, 0, 0);" class="frame-children"><path d="M9.308,31.284C6.839,31.285,4.472,32.272,2.726,34.029C0.981,35.786,0.001,38.169,0.001,40.653C0.001,61.832,17.462,79.000,39.000,79.000C60.539,79.000,77.999,61.832,78.000,40.653C78.000,38.169,77.019,35.785,75.273,34.028C73.528,32.271,71.160,31.284,68.691,31.284C66.222,31.285,63.854,32.272,62.109,34.029C60.364,35.786,59.383,38.169,59.383,40.653C59.383,51.722,50.258,60.696,39.000,60.696C33.594,60.696,28.409,58.585,24.586,54.826C20.763,51.067,18.615,45.969,18.615,40.653C18.615,38.169,17.635,35.786,15.890,34.029C14.144,32.272,11.777,31.285,9.308,31.284ZZ" style="stroke: none; stroke-width: 0.323344; stroke-dasharray: none; stroke-opacity: 1; paint-order: stroke; fill: rgb(50, 164, 97); fill-opacity: 1;" class="fills"/><ellipse cx="9.308" cy="9.368" rx="9.308" ry="9.368" transform="matrix(1.000000, 0.000000, 0.000000, 1.000000, 0.000000, 0.000000)" style="stroke: none; stroke-width: 0.323344; stroke-dasharray: none; stroke-opacity: 1; paint-order: stroke; fill: rgb(73, 136, 243); fill-opacity: 1;" class="fills"/><ellipse cx="68.691" cy="9.368" rx="9.308" ry="9.368" transform="matrix(1.000000, 0.000000, 0.000000, 1.000000, 0.000000, 0.000000)" style="stroke: none; stroke-width: 0.323344; stroke-dasharray: none; stroke-opacity: 1; paint-order: stroke; fill: rgb(220, 75, 61); fill-opacity: 1;" class="fills"/><path d="M38.999,0.000C33.859,0.000,29.692,4.194,29.691,9.367L29.691,40.725L48.308,40.725L48.308,9.367C48.307,6.882,47.326,4.500,45.581,2.743C43.835,0.986,41.467,-0.000,38.999,0.000ZZ" style="stroke: none; stroke-width: 0.323344; stroke-dasharray: none; stroke-opacity: 1; paint-order: stroke; fill: rgb(250, 208, 0); fill-opacity: 1;" class="fills"/></g></svg>